:FULLY-SPECIFIED
:FORCE-ALL-JOINTS-BE-3DOF
:DEGREES
81
root 9.32086 16.3258 -25.4814 3.82776 -8.12243 2.56362
lfemur -16.9588 4.59519 -27.624
ltibia 29.7623 0 0
lfoot -15.2167 7.83095 0
ltoes -0.209878 0 0
rfemur -19.7842 0.803966 16.4087
rtibia 56.3884 0 0
rfoot -7.70021 -11.7797 0
rtoes -11.4453 0 0
lowerback -5.78282 -0.733769 -3.97692
upperback -1.0946 -0.779523 2.59052
thorax 2.21799 -0.438228 4.84205
lowerneck -21.9319 -4.51231 -12.7349
upperneck 18.8928 -4.94584 11.9832
head 10.292 -1.82818 5.67611
lclavicle 6.56416e-15 4.78244e-15 0
lhumerus -27.9622 -12.5207 87.2143
lradius 27.4801 0 0
lwrist 2.35915 0 0
lhand -6.70162 -21.3601 0
lfingers 7.12502 0 0
lthumb 19.1423 7.5273 0
rclavicle 6.56416e-15 4.78244e-15 0
rhumerus -42.8669 13.0276 -88.6741
rradius 37.5664 0 0
rwrist -20.4234 0 0
rhand -29.1638 -22.868 0
rfingers 7.12502 0 0
rthumb -2.50994 -52.8331 0
82
root 9.32943 16.3257 -25.3743 3.75376 -7.79842 2.63789
lfemur -16.2541 4.33131 -27.7572
ltibia 29.3693 0 0
lfoot -15.5455 7.86562 0
ltoes -0.0960026 0 0
rfemur -20.8204 0.962457 16.5778
rtibia 55.9916 0 0
rfoot -8.94725 -11.8325 0
rtoes -12.2112 0 0
lowerback -5.8475 -0.815213 -4.03434
upperback -1.02067 -0.884679 2.60253
thorax 2.34339 -0.495078 4.87979
lowerneck -21.863 -4.54474 -12.8033
upperneck 18.9689 -4.97178 11.9381
head 10.3108 -1.85287 5.66913
lclavicle 5.38294e-15 5.17466e-15 0
lhumerus -27.2335 -13.074 87.1801
lradius 27.9945 0 0
lwrist 2.84755 0 0
lhand -7.39745 -21.6959 0
lfingers 7.12502 0 0
lthumb 18.4738 7.26333 0
rclavicle 5.38294e-15 5.17466e-15 0
rhumerus -42.8821 13.0431 -88.5168
rradius 37.7263 0 0
rwrist -20.58 0 0
rhand -29.1572 -22.7366 0
rfingers 7.12502 0 0
rthumb -2.50354 -52.7017 0
83
root 9.3374 16.3253 -25.2669 3.6835 -7.47029 2.71037
lfemur -15.5438 4.07061 -27.8828
ltibia 28.9609 0 0
lfoot -15.8662 7.89417 0
ltoes 0.00810412 0 0
rfemur -21.842 1.12653 16.738
rtibia 55.5678 0 0
rfoot -10.18 -11.8827 0
rtoes -12.9721 0 0
lowerback -5.91328 -0.89666 -4.09046
upperback -0.948412 -0.989848 2.61411
thorax 2.4678 -0.551862 4.91621
lowerneck -21.7933 -4.57716 -12.8704
upperneck 19.0444 -4.99838 11.894
head 10.3293 -1.87768 5.66214
lclavicle 4.18977e-15 5.55564e-15 0
lhumerus -26.5258 -13.6245 87.1549
lradius 28.5068 0 0
lwrist 3.33137 0 0
lhand -8.08255 -22.0278 0
lfingers 7.12502 0 0
lthumb 17.8156 7.0023 0
rclavicle 4.18977e-15 5.55564e-15 0
rhumerus -42.9005 13.0552 -88.3594
rradius 37.8851 0 0
rwrist -20.7337 0 0
rhand -29.1513 -22.61 0
rfingers 7.12502 0 0
rthumb -2.49787 -52.5752 0
84
root 9.3448 16.3245 -25.159 3.61739 -7.13902 2.78144
lfemur -14.8282 3.8146 -28.0012
ltibia 28.5377 0 0
lfoot -16.1766 7.9154 0
ltoes 0.101961 0 0
rfemur -22.8464 1.29553 16.8861
rtibia 55.1207 0 0
rfoot -11.391 -11.9308 0
rtoes -13.7222 0 0
lowerback -5.97974 -0.977953 -4.1456
upperback -0.878349 -1.09477 2.62506
thorax 2.59039 -0.608433 4.95129
lowerneck -21.7233 -4.60941 -12.9359
upperneck 19.119 -5.02553 11.8508
head 10.3476 -1.90252 5.65511
lclavicle 2.98664e-15 5.9217e-15 0
lhumerus -25.8433 -14.1696 87.1395
lradius 29.0148 0 0
lwrist 3.80782 0 0
lhand -8.75215 -22.3533 0
lfingers 7.12502 0 0
lthumb 17.1722 6.74615 0
rclavicle 2.98664e-15 5.9217e-15 0
rhumerus -42.9224 13.0624 -88.2022
rradius 38.0398 0 0
rwrist -20.8823 0 0
rhand -29.1462 -22.4886 0
rfingers 7.12502 0 0
rthumb -2.49296 -52.4539 0
85
root 9.35164 16.3233 -25.0504 3.55584 -6.80564 2.85146
lfemur -14.1076 3.56482 -28.1126
ltibia 28.1003 0 0
lfoot -16.4748 7.92811 0
ltoes 0.185088 0 0
rfemur -23.8306 1.46882 17.019
rtibia 54.6544 0 0
rfoot -12.5727 -11.9772 0
rtoes -14.4555 0 0
lowerback -6.04649 -1.05894 -4.20008
upperback -0.811014 -1.1992 2.63521
thorax 2.71037 -0.66464 4.98502
lowerneck -21.6533 -4.64134 -12.9993
upperneck 19.1926 -5.05309 11.8085
head 10.3655 -1.92728 5.648
lclavicle 1.77554e-15 6.26916e-15 0
lhumerus -25.1904 -14.7069 87.1347
lradius 29.5159 0 0
lwrist 4.27413 0 0
lhand -9.40145 -22.67 0
lfingers 7.12502 0 0
lthumb 16.5484 6.49683 0
rclavicle 1.77554e-15 6.26916e-15 0
rhumerus -42.9479 13.0638 -88.0455
rradius 38.1872 0 0
rwrist -21.0241 0 0
rhand -29.142 -22.3729 0
rfingers 7.12502 0 0
rthumb -2.48882 -52.3382 0
86
root 9.35796 16.3218 -24.941 3.49925 -6.47116 2.92081
lfemur -13.3825 3.32279 -28.2173
ltibia 27.6494 0 0
lfoot -16.7587 7.9311 0
ltoes 0.257002 0 0
rfemur -24.792 1.64574 17.1336
rtibia 54.1727 0 0
rfoot -13.7174 -12.0225 0
rtoes -15.1659 0 0
lowerback -6.11313 -1.13946 -4.25425
upperback -0.746934 -1.30287 2.64436
thorax 2.82693 -0.720337 5.01737
lowerneck -21.5838 -4.67281 -13.0602
upperneck 19.2651 -5.08094 11.7674
head 10.3831 -1.95186 5.6408
lclavicle 5.58477e-16 6.59433e-15 0
lhumerus -24.5712 -15.2341 87.1413
lradius 30.0077 0 0
lwrist 4.72751 0 0
lhand -10.0257 -22.9754 0
lfingers 7.12502 0 0
lthumb 15.9487 6.25629 0
rclavicle 5.58477e-16 6.59433e-15 0
rhumerus -42.9772 13.058 -87.8896
rradius 38.3245 0 0
rwrist -21.157 0 0
rhand -29.1385 -22.2633 0
rfingers 7.12502 0 0
rthumb -2.48547 -52.2286 0
87
root 9.36376 16.32 -24.8306 3.44804 -6.13657 2.98987
lfemur -12.6531 3.09003 -28.3158
ltibia 27.1857 0 0
lfoot -17.0263 7.92318 0
ltoes 0.317223 0 0
rfemur -25.7278 1.82565 17.2268
rtibia 53.6796 0 0
rfoot -14.8176 -12.0672 0
rtoes -15.8475 0 0
lowerback -6.17927 -1.21936 -4.30843
upperback -0.686642 -1.40553 2.65231
thorax 2.93925 -0.775374 5.04832
lowerneck -21.515 -4.70367 -13.1184
upperneck 19.3362 -5.10897 11.7273
head 10.4003 -1.97614 5.63346
lclavicle -6.62561e-16 6.89354e-15 0
lhumerus -23.9901 -15.7488 87.1601
lradius 30.4879 0 0
lwrist 5.16518 0 0
lhand -10.62 -23.2671 0
lfingers 7.12502 0 0
lthumb 15.3777 6.02647 0
rclavicle -6.62561e-16 6.89354e-15 0
rhumerus -43.0105 13.044 -87.7348
rradius 38.4486 0 0
rwrist -21.2792 0 0
rhand -29.1359 -22.1601 0
rfingers 7.12502 0 0
rthumb -2.48294 -52.1254 0
